<?xml version="1.0" encoding="UTF-8"?>
<svg id="Camada_2" data-name="Camada 2" xmlns="http://www.w3.org/2000/svg" viewBox="0 0 796.61 224.6">
  <defs>
    <style>
      .cls-1 {
        fill: #58dd5c;
      }

      .cls-2 {
        fill: #62b366;
      }

      .cls-3 {
        fill: #202428;
      }
    </style>
  </defs>
  <g id="Camada_1-2" data-name="Camada 1">
    <path class="cls-3" d="M374.18,114.79c-6.72,21.09-30.28,23.15-49.82,22.8l-.24,32.9-20.7-.2.04-101.17c0-1.05.36-1.88,1.26-2.02,12.45-1.92,24.48-2.81,37.02-2.17,14.93.76,28.82,6.42,32.91,22.14,2.42,9.29,2.36,18.81-.48,27.73ZM353.95,92.01c-3.6-12.57-19.99-11.82-29.81-10.02v40.58c6.21,1,12.38.94,18.53-.57,13.24-3.26,14.26-19.59,11.28-29.99Z"/>
    <path class="cls-3" d="M516.01,170.01c-6.18-2.72-9.29-7.87-10.21-14.03-1.23-8.3,1.86-15.69,8.94-19.98,6.01-3.64,12.83-5.04,20-5.55l12.59-.89c1.05-4.4.63-10.11-3.62-12.73-7.29-4.5-23.21.16-30.19,3.52-1.87-3.98-3.3-7.84-4.84-12.25,16.01-10.78,53.21-16.15,57.75,8.9.44,2.41.86,4.6.87,7.04l.11,30.97c.02,5.29.65,9.91,2.57,15.29-6.34-.12-11.97.51-18.1-.05-1.68-.16-1.56-5.85-3.38-7.5-8.73,8.8-20.35,12.61-32.49,7.27ZM547.5,141.37c-6.41-1.52-20.82-1.38-22.29,7.25-.61,3.59.36,7.35,3.87,9.17,3.18,1.65,7.23,1.64,10.73.08,8.26-3.68,9.06-8.45,7.69-16.5Z"/>
    <path class="cls-3" d="M464.9,156.98c9.17,2.47,19.91.02,29.31-4.99,2.01,3.79,2.63,7.65,4.32,12.52-5.68,4.4-12.42,6.5-19.72,7.47-14.8,1.96-30.33-.19-39.74-13.05-7.65-10.45-7.75-28.17-2.79-39.95,7.14-16.95,26.37-23.24,42.84-19.09,13.08,3.3,20.69,12,19.04,26.11-1.52,12.97-16.15,14.91-27.37,15.59l-17.38,1.06c.32,7.26,4.84,12.53,11.5,14.32ZM479.83,120.91c-.88-5.29-4.54-8.91-10.09-9.42-4.61-.43-9.1.89-12.14,4.37-3.5,4.02-5.1,9.23-4.42,14.39,8.85-.69,28.62,2.54,26.65-9.34Z"/>
    <path class="cls-1" d="M782.49,169.45l-.29-38.7c.11-5.77-15.8,22.6-15.63,22.28-.71,1.36-4.16,4.02-5.42,2.11l-18.03-27.47c-.96,14.35.57,26.48-.56,41.73-4.44.17-8.56.31-13.11-.01l.06-67.15c4.06-.31,7.5-.32,11.18.02,8.5,12.19,14.1,23.16,22.76,35.14l10.27-16.49c1.9-3.05,10.14-17.46,11.98-18.38.3-.15,12.83-1.55,10.66,1.53l-.11,65.05c-4.66.59-8.98.24-13.76.34Z"/>
    <path class="cls-1" d="M705.9,168.28l-15.59-22.67c-.6-.87-7.36-1.53-7.39.66l-.29,22.91c-4.87.5-9.3.26-14.08.26l.08-33.42c.01-4.74-.03-9.26.02-14l.19-19.81c8.88-.64,17.45-.8,26.19-.31,5.88.33,12.04,2.1,16.29,6.57,7.14,7.5,7.05,24.71-4.51,31.54-1.08.64-2.15,1.14-3.08,2.41,5.82,9.47,12.94,17.66,18.76,26.91-4.46.69-8.36.03-12.76.24-1.5.07-2.6.51-3.83-1.28ZM701.86,120.07c-1.77-8.15-12.29-7.98-18.97-6.92l-.03,20.8c3.71.67,7.19.75,10.83.09,7.23-1.31,9.61-7.31,8.17-13.98Z"/>
    <path class="cls-3" d="M406.09,170.41l-19.32-.14-.09-52.23-.62-16.56,17.48-.66c.8,3.97.93,6.84,2.18,10.33,7.25-8.21,13.02-14.27,26.09-11.01-.5,5.77-1.14,10.94-2.23,16.64-.43,2.24-15.59-4.38-22.85,8.28l-.63,45.35Z"/>
    <path class="cls-1" d="M624.53,153.11c10.36,13.71,31.52,1.3,32.02,2.89,1.1,3.49,2.09,6.34,2.71,9.55-13.15,8.19-35.06,8.24-46.21-4.62-9.27-10.7-10.25-31-3.69-43.98,9.21-18.2,33.25-20.07,49.41-11.5-1.33,4.14-2.25,7.07-4.04,10.11-9.02-4.1-21.45-6.22-28.89,1.49-8.14,8.42-7.4,28-1.3,36.06Z"/>
    <path class="cls-3" d="M263.65,114.7c-1.57-4.87-6.37-8.01-12.86-13.68-10.75-9.39-20.91-18.68-31.05-28.76-3.21-3.2-6.26-5.91-9.45-8.7-23.75-20.76-49.74-35.46-81.32-41.7-3.92-5.29-7.85-9.93-12.96-14.09C105.97-.4,92.5-2.76,81.01,3.74c-8.54,4.84-11.5,12.6-11.89,14.15-.51,2.04.13,5.05.39,5.42.3.44.38.5.38.5.25.27.39.32.39.53-.01,1.45-6.25,3.72-11.41,2.54-.64-.15-1.4-.38-5.17-1.34-1.53-.39-2.66-.66-2.69-.68-17.02-7.91-38.38-1.8-44.42,16.8-1.51,4.68-2.3,9.63-1.85,14.5,1.46,16.02,9.72,33.07,24.38,42.97-2.43,3.95-5.33,7.14-8.14,10.9-7.48,10.01-16.51,24.26-19.8,42.96-1.24,7.08-2.26,18.57,1.05,32.99,3.44-6.35,5.53-9.37,6.27-9.07.04.02.08.05.12.09,0-.05,0-.11.02-.16,1.23-12.85,4.73-30.43,14.6-48.45.02-.03.04-.07.06-.11,3.63-6.72,6.93-11.3,6.93-11.3,2.12-2.93,4.44-5.76,5.26-6.73.09-.1.17-.2.25-.3,2.38-2.82,4.57-5.16,6.39-7.01,2.66.25,11.16.71,18.55-4.94,2.62-1.99,4.41-4.23,5.61-6.08-14.32,1.96-27.09,3.06-37.33-9.14-7.74-9.22-14.92-25.47-10.34-37.8.66-1.78,1.59-3.38,2.73-4.78,3.89-4.76,9.67-5.78,12.32-6.27,13.15-2.44,29.46,4.53,35.71,15.88,1.1,2,2.94,5.46,1.75,9.12-1.13,3.44-4.78,6.58-8.31,6.5-4.26-.11-7.19-4.73-9.76-3.48-.25.13-.48.33-.67.61-3.22,4.74,8.45,13.68,15.39,16.28,5.34,2,10.33-.95,11.25-6.08,1.86-10.36,7.76-2.72,10.9-9.19,1.88-3.89-4.18-10.81-7.94-14.79-9.98-10.6-19.25-16.8-18.64-17.8.63-1.04,10.19,6.27,19.4,2.78,1.84-.7,1.93-1.9,4-2.22,7.15-1.13,13.89-1.24,21.04-.77,39,2.54,73.11,19.97,100.88,47.08,2.94,2.88,5.89,5,8.42,8.02,5.63,6.71,19.75,17.32,26.09,24.6-9.39,3-15.09,10.34-14.39,16.86.31,2.93,2.14,7.78,6.75,9.78,3.3,1.43,6.45.71,7.63.38.3,2.05.08,3.55-.04,4.21-4.16,23.06-73.54,40.53-82.37,42.75-.92.23-3.89.93-5.04,3.28-.72,1.5-.51,3.28,0,4.32,1.53,3.05,7.78,3.91,15.47,1.96,1.9,3.59,4.06,8.52,5.54,14.63,1.52,6.3,1.82,11.82,1.74,15.96,1.31-2.38,2.61-5.27,3.6-8.65,2.93-10.03,1.44-18.84.19-23.72,15.68-3.6,27.35-9.26,34.87-13.59,34.55-19.89,45.49-48.51,46.79-57.19.17-1.12.7-3.74-.27-6.75Z"/>
    <path class="cls-2" d="M121.58,209.96c-5.69.28-12.59.16-20.34-.92-8.77-1.23-16.2-3.36-22.03-5.47-.21,1.09-.4,2.87.14,4.91,1.1,4.21,4.42,6.36,5.28,6.88-8.14-.97-22.8-3.91-37.28-14.25-7.06-5.05-12.23-10.52-15.87-15.11-.61.98-1.49,2.68-1.88,4.98-.38,2.26-.12,4.13.13,5.25-3.21-1.16-8.65-3.63-13.75-8.75-3.81-3.81-6.06-7.73-7.36-10.48,0-.05,0-.11.02-.16.84-8.81,2.76-19.85,7.07-31.73,1.77-4.89,3.95-9.93,6.63-15.01.3-.58.6-1.16.9-1.71.02-.03.04-.07.06-.11,1-1.83,2.08-3.67,3.22-5.51,2.89-4.65,5.93-8.82,8.97-12.52.11-.13.19-.23.25-.3.42,7.32,2.25,22.14,11.74,37.7,10.22,16.75,23.82,25.37,30.27,28.92.38-.46.76-1,1.1-1.65,1.33-2.56,1.13-5.11.94-6.37,3.14,5.73,7.6,12.58,13.86,19.53,9.91,10.99,20.36,17.8,27.93,21.88Z"/>
    <path class="cls-1" d="M121.58,209.96c-5.5-.51-12.91-1.77-21.15-4.95-9.68-3.73-16.84-8.69-21.5-12.5-9.91-2.66-27.01-8.74-43.25-23.25-9.46-8.45-15.82-17.25-19.97-24.15,1.77-4.89,3.95-9.93,6.63-15.01.3-.58.6-1.16.9-1.71.02-.03.04-.07.06-.11,1-1.83,2.08-3.67,3.22-5.51,2.89-4.65,5.93-8.82,8.97-12.52.11-.13.19-.23.25-.3.42,7.32,2.25,22.14,11.74,37.7,10.22,16.75,23.82,25.37,30.27,28.92.38-.46.76-1,1.1-1.65,1.33-2.56,1.13-5.11.94-6.37,3.14,5.73,7.6,12.58,13.86,19.53,9.91,10.99,20.36,17.8,27.93,21.88Z"/>
    <path class="cls-3" d="M158.99,100.26c0,10.93-8.86,19.78-19.78,19.78s-19.78-8.86-19.78-19.78,8.86-19.78,19.78-19.78,19.78,8.86,19.78,19.78ZM150.73,94.26c0-3.35-2.72-6.07-6.07-6.07s-6.07,2.72-6.07,6.07,2.72,6.07,6.07,6.07,6.07-2.72,6.07-6.07Z"/>
    <path class="cls-3" d="M161.28,164.64c-2.39,1.02-4.63,1.28-5.38-.56-.79-1.95,1.21-3.38,2.78-4.06l26.22-11.36c5.6-2.43,14.12-7.82,15.93-3.39,1.19,2.92-4.93,4.57-5.7,4.89l-33.85,14.47Z"/>
    <path class="cls-3" d="M166.78,143.94c-2.26.33-9.96,2.28-9.91-1.46,0-.63.7-2.28,1.88-2.41,12.21-1.38,25.43-4.97,36.69-5.22,1.25-.03,2.34,1.14,2.58,1.92.42,1.36-.4,3-2.21,3.2l-8.14.92-20.88,3.05Z"/>
    <path class="cls-3" d="M193.63,165.87c-5.37,5.03-10.68,11.21-13.85,8.31s2.16-5.32,7.15-10l13.91-13.03c1.4-1.31,3.27-1.62,4.5-.48.78.73,1.53,2.81.1,4.15l-11.82,11.06Z"/>
  </g>
</svg>